<?xml version="1.0" encoding="utf-8"?>
<!-- Generator: Adobe Illustrator 25.4.1, SVG Export Plug-In . SVG Version: 6.00 Build 0)  -->
<svg version="1.1" id="Capa_1" xmlns="http://www.w3.org/2000/svg" xmlns:xlink="http://www.w3.org/1999/xlink" x="0px" y="0px"
	 viewBox="0 0 520 90" style="enable-background:new 0 0 520 90;" xml:space="preserve">
<style type="text/css">
	.st0{fill:#00BDBC;}
	.st1{clip-path:url(#SVGID_00000082369646418732500350000016166650280168313478_);}
	.st2{fill:#805333;}
	.st3{fill:#A56A43;}
	.st4{fill:#FDD7AD;}
	.st5{fill:#F9C795;}
	.st6{fill:#FB7B76;}
	.st7{fill:#FF5364;}
	.st8{fill:#ECF0F1;}
	.st9{fill:#802D40;}
	.st10{fill:#3F5C6C;}
</style>
<path class="st0" d="M132,74c-1.2,0-2.1-0.3-2.8-1c-0.6-0.7-1-1.6-1-2.7V25.2c0-1.1,0.3-2,1-2.7c0.7-0.7,1.6-1.1,2.8-1.1
	c1.1,0,2,0.4,2.6,1.1c0.7,0.7,1.1,1.6,1.1,2.7v2.1c1.8-2,3.9-3.6,6.3-4.7c2.4-1.2,5.1-1.7,8.1-1.7c3.6,0,6.8,0.8,9.5,2.4
	c2.8,1.6,5.1,3.8,6.7,6.6c1.8-2.8,4.2-5,7.2-6.6s6.4-2.4,10.1-2.4c3.8,0,7.1,0.9,10,2.7c2.9,1.8,5.2,4.3,6.8,7.6
	c1.7,3.3,2.5,7.1,2.5,11.5v27.6c0,1.1-0.4,2-1.1,2.7c-0.6,0.6-1.5,1-2.6,1s-2-0.3-2.7-1c-0.7-0.7-1.1-1.6-1.1-2.7V42.7
	c0-4.5-1.2-8.1-3.6-10.8c-2.4-2.7-5.4-4-9.1-4c-4,0-7.2,1.3-9.8,4c-2.5,2.6-3.7,6.1-3.6,10.6v0.2v27.6c0,1.1-0.4,2-1.1,2.7
	c-0.6,0.6-1.5,1-2.6,1s-2-0.3-2.7-1c-0.7-0.7-1.1-1.6-1.1-2.7V42.7c0-4.5-1.2-8.1-3.6-10.8c-2.4-2.7-5.4-4-9.1-4
	c-4,0-7.2,1.3-9.8,3.9c-2.6,2.6-3.8,5.9-3.8,10.1v28.4c0,1.1-0.4,2-1.1,2.7C133.9,73.7,133.1,74,132,74z M242.3,74.5
	c-4.9,0-9.3-1.2-13.2-3.5c-3.9-2.4-7-5.6-9.3-9.6c-2.2-4-3.4-8.6-3.4-13.6c0-5.1,1.2-9.7,3.5-13.7c2.4-4,5.6-7.2,9.6-9.5
	c4-2.4,8.6-3.6,13.6-3.6s9.6,1.2,13.5,3.6c4,2.3,7.2,5.5,9.5,9.5c2.4,4,3.6,8.6,3.6,13.7v22.6c0,1.1-0.4,2-1.1,2.7
	c-0.7,0.6-1.6,1-2.7,1s-2-0.3-2.7-1c-0.7-0.7-1.1-1.6-1.1-2.7v-5.9c-2.2,3.1-5,5.5-8.4,7.3S246.5,74.5,242.3,74.5z M243.1,67.8
	c3.7,0,7-0.9,9.9-2.6c2.9-1.7,5.2-4.1,6.9-7.1c1.7-3.1,2.6-6.5,2.6-10.3c0-3.8-0.9-7.3-2.6-10.3c-1.7-3-4-5.4-6.9-7.1
	c-2.9-1.8-6.2-2.7-9.9-2.7c-3.6,0-6.9,0.9-9.9,2.7c-2.9,1.7-5.3,4.1-7,7.1s-2.6,6.4-2.6,10.3c0,3.8,0.9,7.2,2.6,10.3
	c1.7,3,4.1,5.4,7,7.1C236.1,66.9,239.4,67.8,243.1,67.8z M307.6,74.5c-5.1,0-9.6-1.2-13.5-3.5c-3.9-2.4-7-5.6-9.3-9.6
	c-2.2-4-3.4-8.6-3.4-13.6c0-5.1,1.1-9.7,3.3-13.7c2.2-4,5.2-7.2,8.9-9.5c3.8-2.4,8.1-3.6,13.1-3.6c8,0,14.5,3.1,19.5,9.2
	c0.7,0.8,1,1.6,0.8,2.5c-0.2,0.8-0.7,1.6-1.6,2.2c-0.7,0.5-1.5,0.7-2.4,0.6c-0.8-0.2-1.6-0.7-2.2-1.4c-3.7-4.2-8.4-6.3-14-6.3
	c-3.6,0-6.8,0.9-9.5,2.6c-2.7,1.7-4.8,4.1-6.3,7.1c-1.5,3-2.2,6.5-2.2,10.4c0,3.8,0.8,7.3,2.4,10.3c1.6,3,3.8,5.4,6.7,7.1
	c2.9,1.7,6.2,2.6,9.9,2.6c5.1,0,9.2-1.4,12.4-4.1c0.8-0.6,1.6-1,2.4-1.1c0.8-0.1,1.6,0.2,2.3,0.8c0.8,0.7,1.2,1.5,1.2,2.4
	c0.1,0.9-0.2,1.7-0.9,2.3C320.4,72.3,314.5,74.5,307.6,74.5z M365.2,74.5c-5.1,0-9.7-1.2-13.7-3.5c-4-2.3-7.2-5.5-9.5-9.5
	s-3.5-8.6-3.5-13.7c0-5.2,1.2-9.8,3.5-13.8s5.5-7.2,9.5-9.5c4-2.3,8.6-3.5,13.7-3.5s9.7,1.2,13.6,3.5c4,2.3,7.2,5.5,9.5,9.5
	c2.3,4,3.5,8.6,3.6,13.8c0,5.1-1.2,9.7-3.6,13.7c-2.3,4-5.5,7.2-9.5,9.5C374.9,73.3,370.4,74.5,365.2,74.5z M365.2,67.8
	c3.7,0,7-0.9,10-2.6c2.9-1.7,5.2-4.1,6.9-7.1s2.5-6.4,2.5-10.3s-0.8-7.3-2.5-10.3c-1.7-3.1-4-5.5-6.9-7.2c-2.9-1.7-6.3-2.6-10-2.6
	c-3.7,0-7,0.9-10,2.6c-2.9,1.7-5.3,4.1-7,7.2c-1.7,3-2.5,6.4-2.5,10.3s0.8,7.3,2.5,10.3c1.7,3,4.1,5.4,7,7.1
	C358.2,66.9,361.5,67.8,365.2,67.8z M429.7,74.5c-5.1,0-9.6-1.2-13.5-3.5c-3.9-2.4-7-5.6-9.3-9.6c-2.2-4-3.4-8.6-3.4-13.6
	c0-5.1,1.1-9.7,3.3-13.7c2.2-4,5.2-7.2,8.9-9.5c3.8-2.4,8.1-3.6,13.1-3.6c8,0,14.5,3.1,19.5,9.2c0.7,0.8,1,1.6,0.8,2.5
	c-0.2,0.8-0.7,1.6-1.6,2.2c-0.7,0.5-1.5,0.7-2.4,0.6c-0.8-0.2-1.6-0.7-2.2-1.4c-3.7-4.2-8.4-6.3-14-6.3c-3.6,0-6.8,0.9-9.5,2.6
	c-2.7,1.7-4.8,4.1-6.3,7.1c-1.5,3-2.2,6.5-2.2,10.4c0,3.8,0.8,7.3,2.4,10.3c1.6,3,3.8,5.4,6.7,7.1c2.9,1.7,6.2,2.6,9.9,2.6
	c5.1,0,9.2-1.4,12.4-4.1c0.8-0.6,1.6-1,2.4-1.1c0.8-0.1,1.6,0.2,2.3,0.8c0.8,0.7,1.2,1.5,1.2,2.4c0.1,0.9-0.2,1.7-0.9,2.3
	C442.5,72.3,436.7,74.5,429.7,74.5z M486.3,74.6c-4.5,0-8.6-0.9-12.2-2.8c-3.6-1.9-6.4-4.7-8.5-8.4c-2-3.6-3.1-8.1-3.1-13.3v-25
	c0-1,0.4-1.9,1.1-2.6c0.7-0.7,1.6-1.1,2.6-1.1c1.1,0,2,0.4,2.7,1.1c0.7,0.7,1.1,1.6,1.1,2.6v25c0,5.9,1.6,10.3,4.9,13.2
	c3.3,2.9,7.4,4.3,12.3,4.3c3.1,0,6-0.6,8.4-1.8c2.6-1.2,4.6-2.9,6-5s2.2-4.5,2.2-7.2V25.1c0-1.1,0.3-2,1-2.6
	c0.7-0.7,1.6-1.1,2.7-1.1s2,0.4,2.7,1.1c0.7,0.6,1.1,1.5,1.1,2.6v45.1c0,1.2-0.4,2.1-1.1,2.8c-0.7,0.6-1.6,1-2.7,1s-2-0.3-2.7-1
	c-0.6-0.7-1-1.6-1-2.8V67c-2.1,2.4-4.7,4.2-7.7,5.6C493.1,73.9,489.9,74.6,486.3,74.6z"/>
<g>
	<defs>
		<rect id="SVGID_1_" x="3.6" width="90" height="90"/>
	</defs>
	<clipPath id="SVGID_00000015317343013466370800000011957054564073051063_">
		<use xlink:href="#SVGID_1_"  style="overflow:visible;"/>
	</clipPath>
	<g style="clip-path:url(#SVGID_00000015317343013466370800000011957054564073051063_);">
		<path class="st2" d="M68.2,80.8h7.9c0.1,0,9.2,0,9.2-4.6c0-4.9-0.9-6.9-5.9-9.5c-3.6-1.7-5.6-5.7-4.6-9.6c0.9-4.2,5-8.4,12-8.4
			c1.7,0,3.1,1.4,3.1,3.1c0,1.7-1.4,3.1-3.1,3.1c-3.6,0-5.7,1.9-6.1,3.7c-0.3,1.1,0.3,2.3,1.4,2.8c6.8,3.4,9.3,7.3,9.3,14.9
			c0,7.9-8.2,10.7-15.3,10.7h-9.4L68.2,80.8z"/>
		<path class="st3" d="M36.4,88.5H16.6c-6.1,0-6.1-16.8-1.5-16.8c4.6,0,4.6,4.6,4.6,3.1c0-1.5,1.5-6.1,7.6-6.1
			c0.9,0,1.8,0.1,2.7,0.4L36.4,88.5z"/>
		<path class="st3" d="M68.4,74.7c0,10.7-1.5,13.7-4.6,13.7H33.3c-4.6,0-6.1-6.1-6.1-10.7c0-3.6,3.8-12.8,9.8-19.6
			c0.7-0.8,1.5-1.6,2.2-2.3l23.8-2c0.3,0.7,0.6,1.5,0.9,2.3C66.1,61.6,68.4,68.9,68.4,74.7z"/>
		<path class="st4" d="M55.1,54.6c-1.1,1.3-2,2.7-2.7,4.3c-0.5,1.1-0.8,2.4-0.9,3.7c0,0-7.5-1.5-10.6,4.6c-0.7,1.6-1,3.3-0.8,5
			c-0.7-0.3-1.5-0.5-2.3-0.5c-4.6,0-4.6,16.8,1.5,16.8h-6.1c-4.6,0-6.1-6.1-6.1-10.7c0-3.6,3.8-12.8,9.8-19.6c0.3-0.3,0.6-0.7,0.9-1
			c0.3-0.3,0.9-0.9,1.3-1.3L55.1,54.6z"/>
		<path class="st2" d="M64,56.3c-3.7,1.5-7.6,2.3-11.6,2.6c0.7-1.5,1.6-3,2.7-4.3l8-0.7C63.4,54.7,63.7,55.4,64,56.3z"/>
		<path class="st5" d="M55.1,54.6c-1.1,1.3-2,2.7-2.7,4.3c-1.7,0.2-3.5,0.2-5.3,0.2c-3.4,0-6.7-0.3-10-0.9c0.3-0.3,0.6-0.7,0.9-1
			c0.3-0.3,0.9-0.9,1.3-1.3L55.1,54.6z"/>
		<path class="st2" d="M59.3,72.7c-0.2-0.2-2-5.6-9.2-5.6c-3.3-0.2-6.5,1.4-8.2,4.3l-0.3-0.2c-0.1-1.2,0.2-2.4,0.7-3.5
			c2.5-5,8.6-3.7,8.9-3.7c0.4,0.1,0.9,0,1.3-0.3c0.4-0.3,0.6-0.7,0.6-1.2c0-3.4,3.4-7.2,4.1-7.8c0.6-0.4,0.8-1.1,0.6-1.7
			c-0.2-0.7-0.8-1.1-1.5-1.1c-1.5,0-5.1,4.7-6,8.9c-4.3-0.4-8.5,1.8-10.6,5.6c-0.6,1.2-0.9,2.4-1,3.7c-0.2,0-0.5,0-0.7,0
			c-2.9,0-4.8,3.5-4.8,9c0,2.4,0.4,4.7,1.3,6.9c1.1,2.5,2.9,3.9,5,3.9c7.5,0,7.6-4.4,7.6-4.6c0-0.8-0.7-1.5-1.5-1.5
			c-0.8,0-1.5,0.7-1.5,1.5c0,0.5-1.1,1.5-4.6,1.5c-0.9,0-1.6-0.7-2.2-2.1c-0.7-1.8-1.1-3.8-1-5.7c0-3.9,1.1-6,1.7-6
			c1.4-0.1,2.7,0.8,3.1,2.2c0.2,0.8,1,1.3,1.8,1.2c0.5,0,1.3-0.4,1.3-1.8c0,0,0.4-4.6,6.1-4.6c4.8,0,6.1,3.4,6.1,3.5
			c0.3,0.8,1.1,1.2,1.9,1s1.2-1.1,1-1.9H59.3z"/>
		<path class="st6" d="M17.3,38.8c-1.7,0.5-3.5,0.8-5.3,0.8c-4.6,0-6.1-6.1-6.1-10.7c0-4.6,1.5-10.7,6.1-10.7c2.5,0.1,5,0.6,7.4,1.4
			L17.3,38.8z"/>
		<path class="st7" d="M17,28.5c-0.2,0-0.4,0-0.5-0.1c-1.4-0.6-2.9-0.9-4.4-0.9c-0.8,0-1.5-0.7-1.5-1.5c0-0.8,0.7-1.5,1.5-1.5
			c1.9,0.1,3.8,0.4,5.5,1.1c0.7,0.3,1.1,1,0.9,1.7C18.3,28,17.7,28.5,17,28.5z"/>
		<path class="st3" d="M89.8,29c0,4.6-1.5,10.7-6.1,10.7c-2.3-0.1-4.6-0.5-6.8-1.2c-0.2,1-0.5,2-0.9,2.9c-3.9,11.1-15.4,15-29,15
			c-16.8,0-30.5-6.1-30.5-24.4c0-9.2,3.5-15.3,9.1-19.1c1-0.7,2-1.3,3.1-1.8C20.8,7.4,25.7,0,25.7,0c0.9,2.7,3.3,4.5,6.1,4.6
			c1.1-1.9,2.6-3.5,4.6-4.6c0,6.1,7.6,7.6,10.7,7.6c11.2,0,20.9,2.7,26.2,9.8c0.6,0.8,1.2,1.7,1.7,2.7c2.8-1,5.7-1.6,8.7-1.8
			C88.3,18.3,89.8,24.4,89.8,29z"/>
		<path class="st2" d="M31.5,13.5c-0.2,0.7-0.8,1.2-1.5,1.1h-0.4c-1.2-0.3-2.3-0.7-3.4-1.2c-0.2-0.1-0.4-0.3-0.6-0.5
			c1-0.7,2.1-1.3,3.2-1.8c0.5,0.2,1.1,0.3,1.7,0.5C31.2,11.9,31.7,12.7,31.5,13.5z"/>
		<path class="st4" d="M66.9,30.5c0,5.1,0,24.4-16.2,25.8h-0.1c-1.2,0.1-2.3,0.1-3.5,0.1c-16.8,0-30.5-6.1-30.5-24.4
			c-0.2-5.2,1.3-10.3,4.2-14.5c2.1-0.5,4.3-0.8,6.5-0.7c10.7,0,12.2,3.1,12.2,3.1s3.1-3.1,13.7-3.1S66.9,24.4,66.9,30.5z"/>
		<path class="st2" d="M75,20.1c-1.7,0.6-3,1.1-3,1.1c-0.2,0.1-0.4,0.1-0.6,0.1c-0.7,0-1.4-0.5-1.5-1.2c-0.1-0.7,0.3-1.5,1-1.7
			c0,0,1-0.4,2.4-0.9C73.9,18.3,74.5,19.2,75,20.1z"/>
		<path class="st2" d="M76.9,38.5c-0.2,1-0.5,2-0.9,2.9c-1.1-0.3-2.2-0.7-3.3-1.1c-0.5-0.2-1-0.6-1.1-1.2c-0.1-0.6,0.1-1.1,0.5-1.5
			c0.4-0.4,1-0.4,1.6-0.2C74.5,37.7,75.7,38.1,76.9,38.5z"/>
		<path class="st8" d="M51.7,38.1c3.4,0,6.1-2.7,6.1-6.1s-2.7-6.1-6.1-6.1s-6.1,2.7-6.1,6.1S48.3,38.1,51.7,38.1z"/>
		<path class="st8" d="M27.2,38.1c3.4,0,6.1-2.7,6.1-6.1s-2.7-6.1-6.1-6.1c-3.4,0-6.1,2.7-6.1,6.1S23.9,38.1,27.2,38.1z"/>
		<path class="st9" d="M42.5,48.8c-1.3-0.1-2.4-0.8-3.1-2v-2.6c0-0.8-0.7-1.5-1.5-1.5s-1.5,0.7-1.5,1.5v2.7
			c-0.4,0.7-0.9,1.4-1.5,1.9c-0.8,0-1.5,0.7-1.5,1.5c0,0.8,0.7,1.5,1.5,1.5c1.3-0.1,2.4-0.8,3.1-1.9c1.2,1.2,2.8,1.8,4.5,1.9
			c0.8,0,1.5-0.7,1.5-1.5C44,49.5,43.3,48.8,42.5,48.8z"/>
		<path class="st2" d="M79.1,32c-0.2,0-0.3,0-0.5-0.1c-2.4-0.7-4.7-1.8-6.7-3.4c-0.4-0.4-0.5-0.9-0.4-1.4c0.1-0.5,0.5-0.9,1-1.1
			c2.6-0.9,5.4-1.4,8.1-1.6c0.8,0,1.5,0.7,1.5,1.5c0,0.8-0.7,1.5-1.5,1.5c-1.3,0-2.6,0.2-3.8,0.5c0.9,0.4,1.8,0.8,2.8,1.1
			c0.4,0.1,0.7,0.4,0.9,0.7s0.2,0.8,0.1,1.2C80.4,31.6,79.8,32.1,79.1,32z"/>
		<path class="st6" d="M41,39.7c0,1.7-1.4,4.6-3.1,4.6c-1.7,0-3.1-2.9-3.1-4.6c0-1.7,1.4-1.5,3.1-1.5C39.6,38.1,41,38,41,39.7z"/>
		<path class="st10" d="M28.8,35.1c1.7,0,3.1-1.4,3.1-3.1c0-1.7-1.4-3.1-3.1-3.1c-1.7,0-3.1,1.4-3.1,3.1
			C25.7,33.7,27.1,35.1,28.8,35.1z"/>
		<path class="st10" d="M50.1,35.1c1.7,0,3.1-1.4,3.1-3.1c0-1.7-1.4-3.1-3.1-3.1c-1.7,0-3.1,1.4-3.1,3.1
			C47.1,33.7,48.4,35.1,50.1,35.1z"/>
		<path class="st8" d="M27.2,32c0.8,0,1.5-0.7,1.5-1.5S28.1,29,27.2,29c-0.8,0-1.5,0.7-1.5,1.5S26.4,32,27.2,32z"/>
		<path class="st8" d="M51.7,32c0.8,0,1.5-0.7,1.5-1.5S52.5,29,51.7,29c-0.8,0-1.5,0.7-1.5,1.5S50.8,32,51.7,32z"/>
	</g>
</g>
</svg>
