<svg version="1.1" id="Capa_1" xmlns="http://www.w3.org/2000/svg" xmlns:xlink="http://www.w3.org/1999/xlink" x="0" y="0" viewBox="0 0 520 90" style="enable-background:new 0 0 520 90" xml:space="preserve"><style>.st2{fill:#805333}.st3{fill:#a56a43}.st4{fill:#fdd7ad}.st6{fill:#fb7b76}.st8{fill:#ecf0f1}</style><path d="M132 74c-1.2 0-2.1-.3-2.8-1-.6-.7-1-1.6-1-2.7V25.2c0-1.1.3-2 1-2.7.7-.7 1.6-1.1 2.8-1.1 1.1 0 2 .4 2.6 1.1.7.7 1.1 1.6 1.1 2.7v2.1c1.8-2 3.9-3.6 6.3-4.7 2.4-1.2 5.1-1.7 8.1-1.7 3.6 0 6.8.8 9.5 2.4 2.8 1.6 5.1 3.8 6.7 6.6 1.8-2.8 4.2-5 7.2-6.6s6.4-2.4 10.1-2.4c3.8 0 7.1.9 10 2.7 2.9 1.8 5.2 4.3 6.8 7.6 1.7 3.3 2.5 7.1 2.5 11.5v27.6c0 1.1-.4 2-1.1 2.7-.6.6-1.5 1-2.6 1s-2-.3-2.7-1c-.7-.7-1.1-1.6-1.1-2.7V42.7c0-4.5-1.2-8.1-3.6-10.8-2.4-2.7-5.4-4-9.1-4-4 0-7.2 1.3-9.8 4-2.5 2.6-3.7 6.1-3.6 10.6v27.8c0 1.1-.4 2-1.1 2.7-.6.6-1.5 1-2.6 1s-2-.3-2.7-1c-.7-.7-1.1-1.6-1.1-2.7V42.7c0-4.5-1.2-8.1-3.6-10.8-2.4-2.7-5.4-4-9.1-4-4 0-7.2 1.3-9.8 3.9-2.6 2.6-3.8 5.9-3.8 10.1v28.4c0 1.1-.4 2-1.1 2.7-.5.7-1.3 1-2.4 1zm110.3.5c-4.9 0-9.3-1.2-13.2-3.5-3.9-2.4-7-5.6-9.3-9.6-2.2-4-3.4-8.6-3.4-13.6 0-5.1 1.2-9.7 3.5-13.7 2.4-4 5.6-7.2 9.6-9.5 4-2.4 8.6-3.6 13.6-3.6s9.6 1.2 13.5 3.6c4 2.3 7.2 5.5 9.5 9.5 2.4 4 3.6 8.6 3.6 13.7v22.6c0 1.1-.4 2-1.1 2.7-.7.6-1.6 1-2.7 1s-2-.3-2.7-1c-.7-.7-1.1-1.6-1.1-2.7v-5.9c-2.2 3.1-5 5.5-8.4 7.3s-7.2 2.7-11.4 2.7zm.8-6.7c3.7 0 7-.9 9.9-2.6 2.9-1.7 5.2-4.1 6.9-7.1 1.7-3.1 2.6-6.5 2.6-10.3 0-3.8-.9-7.3-2.6-10.3-1.7-3-4-5.4-6.9-7.1-2.9-1.8-6.2-2.7-9.9-2.7-3.6 0-6.9.9-9.9 2.7-2.9 1.7-5.3 4.1-7 7.1s-2.6 6.4-2.6 10.3c0 3.8.9 7.2 2.6 10.3 1.7 3 4.1 5.4 7 7.1 2.9 1.7 6.2 2.6 9.9 2.6zm64.5 6.7c-5.1 0-9.6-1.2-13.5-3.5-3.9-2.4-7-5.6-9.3-9.6-2.2-4-3.4-8.6-3.4-13.6 0-5.1 1.1-9.7 3.3-13.7 2.2-4 5.2-7.2 8.9-9.5 3.8-2.4 8.1-3.6 13.1-3.6 8 0 14.5 3.1 19.5 9.2.7.8 1 1.6.8 2.5-.2.8-.7 1.6-1.6 2.2-.7.5-1.5.7-2.4.6-.8-.2-1.6-.7-2.2-1.4-3.7-4.2-8.4-6.3-14-6.3-3.6 0-6.8.9-9.5 2.6-2.7 1.7-4.8 4.1-6.3 7.1s-2.2 6.5-2.2 10.4c0 3.8.8 7.3 2.4 10.3 1.6 3 3.8 5.4 6.7 7.1 2.9 1.7 6.2 2.6 9.9 2.6 5.1 0 9.2-1.4 12.4-4.1.8-.6 1.6-1 2.4-1.1.8-.1 1.6.2 2.3.8.8.7 1.2 1.5 1.2 2.4.1.9-.2 1.7-.9 2.3-4.8 4.1-10.7 6.3-17.6 6.3zm57.6 0c-5.1 0-9.7-1.2-13.7-3.5s-7.2-5.5-9.5-9.5-3.5-8.6-3.5-13.7c0-5.2 1.2-9.8 3.5-13.8s5.5-7.2 9.5-9.5 8.6-3.5 13.7-3.5 9.7 1.2 13.6 3.5c4 2.3 7.2 5.5 9.5 9.5s3.5 8.6 3.6 13.8c0 5.1-1.2 9.7-3.6 13.7-2.3 4-5.5 7.2-9.5 9.5-3.9 2.3-8.4 3.5-13.6 3.5zm0-6.7c3.7 0 7-.9 10-2.6 2.9-1.7 5.2-4.1 6.9-7.1s2.5-6.4 2.5-10.3-.8-7.3-2.5-10.3c-1.7-3.1-4-5.5-6.9-7.2-2.9-1.7-6.3-2.6-10-2.6s-7 .9-10 2.6c-2.9 1.7-5.3 4.1-7 7.2-1.7 3-2.5 6.4-2.5 10.3s.8 7.3 2.5 10.3c1.7 3 4.1 5.4 7 7.1 3 1.7 6.3 2.6 10 2.6zm64.5 6.7c-5.1 0-9.6-1.2-13.5-3.5-3.9-2.4-7-5.6-9.3-9.6-2.2-4-3.4-8.6-3.4-13.6 0-5.1 1.1-9.7 3.3-13.7 2.2-4 5.2-7.2 8.9-9.5 3.8-2.4 8.1-3.6 13.1-3.6 8 0 14.5 3.1 19.5 9.2.7.8 1 1.6.8 2.5-.2.8-.7 1.6-1.6 2.2-.7.5-1.5.7-2.4.6-.8-.2-1.6-.7-2.2-1.4-3.7-4.2-8.4-6.3-14-6.3-3.6 0-6.8.9-9.5 2.6-2.7 1.7-4.8 4.1-6.3 7.1s-2.2 6.5-2.2 10.4c0 3.8.8 7.3 2.4 10.3 1.6 3 3.8 5.4 6.7 7.1 2.9 1.7 6.2 2.6 9.9 2.6 5.1 0 9.2-1.4 12.4-4.1.8-.6 1.6-1 2.4-1.1.8-.1 1.6.2 2.3.8.8.7 1.2 1.5 1.2 2.4.1.9-.2 1.7-.9 2.3-4.8 4.1-10.6 6.3-17.6 6.3zm56.6.1c-4.5 0-8.6-.9-12.2-2.8-3.6-1.9-6.4-4.7-8.5-8.4-2-3.6-3.1-8.1-3.1-13.3v-25c0-1 .4-1.9 1.1-2.6.7-.7 1.6-1.1 2.6-1.1 1.1 0 2 .4 2.7 1.1.7.7 1.1 1.6 1.1 2.6v25c0 5.9 1.6 10.3 4.9 13.2 3.3 2.9 7.4 4.3 12.3 4.3 3.1 0 6-.6 8.4-1.8 2.6-1.2 4.6-2.9 6-5s2.2-4.5 2.2-7.2V25.1c0-1.1.3-2 1-2.6.7-.7 1.6-1.1 2.7-1.1s2 .4 2.7 1.1c.7.6 1.1 1.5 1.1 2.6v45.1c0 1.2-.4 2.1-1.1 2.8-.7.6-1.6 1-2.7 1s-2-.3-2.7-1c-.6-.7-1-1.6-1-2.8V67c-2.1 2.4-4.7 4.2-7.7 5.6-3 1.3-6.2 2-9.8 2z" style="fill:#00bdbc"/><defs><path id="SVGID_1_" d="M3.6 0h90v90h-90z"/></defs><clipPath id="SVGID_00000015317343013466370800000011957054564073051063_"><use xlink:href="#SVGID_1_" style="overflow:visible"/></clipPath><g style="clip-path:url(#SVGID_00000015317343013466370800000011957054564073051063_)"><path class="st2" d="M68.2 80.8h7.9c.1 0 9.2 0 9.2-4.6 0-4.9-.9-6.9-5.9-9.5-3.6-1.7-5.6-5.7-4.6-9.6.9-4.2 5-8.4 12-8.4 1.7 0 3.1 1.4 3.1 3.1 0 1.7-1.4 3.1-3.1 3.1-3.6 0-5.7 1.9-6.1 3.7-.3 1.1.3 2.3 1.4 2.8 6.8 3.4 9.3 7.3 9.3 14.9 0 7.9-8.2 10.7-15.3 10.7h-9.4l1.5-6.2z"/><path class="st3" d="M36.4 88.5H16.6c-6.1 0-6.1-16.8-1.5-16.8s4.6 4.6 4.6 3.1c0-1.5 1.5-6.1 7.6-6.1.9 0 1.8.1 2.7.4l6.4 19.4z"/><path class="st3" d="M68.4 74.7c0 10.7-1.5 13.7-4.6 13.7H33.3c-4.6 0-6.1-6.1-6.1-10.7 0-3.6 3.8-12.8 9.8-19.6.7-.8 1.5-1.6 2.2-2.3l23.8-2c.3.7.6 1.5.9 2.3 2.2 5.5 4.5 12.8 4.5 18.6z"/><path class="st4" d="M55.1 54.6c-1.1 1.3-2 2.7-2.7 4.3-.5 1.1-.8 2.4-.9 3.7 0 0-7.5-1.5-10.6 4.6-.7 1.6-1 3.3-.8 5-.7-.3-1.5-.5-2.3-.5-4.6 0-4.6 16.8 1.5 16.8h-6.1c-4.6 0-6.1-6.1-6.1-10.7 0-3.6 3.8-12.8 9.8-19.6.3-.3.6-.7.9-1l1.3-1.3 16-1.3z"/><path class="st2" d="M64 56.3c-3.7 1.5-7.6 2.3-11.6 2.6.7-1.5 1.6-3 2.7-4.3l8-.7c.3.8.6 1.5.9 2.4z"/><path d="M55.1 54.6c-1.1 1.3-2 2.7-2.7 4.3-1.7.2-3.5.2-5.3.2-3.4 0-6.7-.3-10-.9.3-.3.6-.7.9-1l1.3-1.3 15.8-1.3z" style="fill:#f9c795"/><path class="st2" d="M59.3 72.7c-.2-.2-2-5.6-9.2-5.6-3.3-.2-6.5 1.4-8.2 4.3l-.3-.2c-.1-1.2.2-2.4.7-3.5 2.5-5 8.6-3.7 8.9-3.7.4.1.9 0 1.3-.3s.6-.7.6-1.2c0-3.4 3.4-7.2 4.1-7.8.6-.4.8-1.1.6-1.7-.2-.7-.8-1.1-1.5-1.1-1.5 0-5.1 4.7-6 8.9-4.3-.4-8.5 1.8-10.6 5.6-.6 1.2-.9 2.4-1 3.7H38c-2.9 0-4.8 3.5-4.8 9 0 2.4.4 4.7 1.3 6.9 1.1 2.5 2.9 3.9 5 3.9 7.5 0 7.6-4.4 7.6-4.6 0-.8-.7-1.5-1.5-1.5s-1.5.7-1.5 1.5c0 .5-1.1 1.5-4.6 1.5-.9 0-1.6-.7-2.2-2.1-.7-1.8-1.1-3.8-1-5.7 0-3.9 1.1-6 1.7-6 1.4-.1 2.7.8 3.1 2.2.2.8 1 1.3 1.8 1.2.5 0 1.3-.4 1.3-1.8 0 0 .4-4.6 6.1-4.6 4.8 0 6.1 3.4 6.1 3.5.3.8 1.1 1.2 1.9 1s1.2-1.1 1-1.9z"/><path class="st6" d="M17.3 38.8c-1.7.5-3.5.8-5.3.8-4.6 0-6.1-6.1-6.1-10.7S7.4 18.2 12 18.2c2.5.1 5 .6 7.4 1.4l-2.1 19.2z"/><path d="M17 28.5c-.2 0-.4 0-.5-.1-1.4-.6-2.9-.9-4.4-.9-.8 0-1.5-.7-1.5-1.5s.7-1.5 1.5-1.5c1.9.1 3.8.4 5.5 1.1.7.3 1.1 1 .9 1.7-.2.7-.8 1.2-1.5 1.2z" style="fill:#ff5364"/><path class="st3" d="M89.8 29c0 4.6-1.5 10.7-6.1 10.7-2.3-.1-4.6-.5-6.8-1.2-.2 1-.5 2-.9 2.9-3.9 11.1-15.4 15-29 15-16.8 0-30.5-6.1-30.5-24.4 0-9.2 3.5-15.3 9.1-19.1 1-.7 2-1.3 3.1-1.8-7.9-3.7-3-11.1-3-11.1.9 2.7 3.3 4.5 6.1 4.6 1.1-1.9 2.6-3.5 4.6-4.6 0 6.1 7.6 7.6 10.7 7.6 11.2 0 20.9 2.7 26.2 9.8.6.8 1.2 1.7 1.7 2.7 2.8-1 5.7-1.6 8.7-1.8 4.6 0 6.1 6.1 6.1 10.7z"/><path class="st2" d="M31.5 13.5c-.2.7-.8 1.2-1.5 1.1h-.4c-1.2-.3-2.3-.7-3.4-1.2-.2-.1-.4-.3-.6-.5 1-.7 2.1-1.3 3.2-1.8.5.2 1.1.3 1.7.5.7.3 1.2 1.1 1 1.9z"/><path class="st4" d="M66.9 30.5c0 5.1 0 24.4-16.2 25.8h-.1c-1.2.1-2.3.1-3.5.1-16.8 0-30.5-6.1-30.5-24.4-.2-5.2 1.3-10.3 4.2-14.5 2.1-.5 4.3-.8 6.5-.7 10.7 0 12.2 3.1 12.2 3.1s3.1-3.1 13.7-3.1 13.7 7.6 13.7 13.7z"/><path class="st2" d="M75 20.1c-1.7.6-3 1.1-3 1.1-.2.1-.4.1-.6.1-.7 0-1.4-.5-1.5-1.2-.1-.7.3-1.5 1-1.7 0 0 1-.4 2.4-.9.6.8 1.2 1.7 1.7 2.6zm1.9 18.4c-.2 1-.5 2-.9 2.9-1.1-.3-2.2-.7-3.3-1.1-.5-.2-1-.6-1.1-1.2-.1-.6.1-1.1.5-1.5.4-.4 1-.4 1.6-.2.8.3 2 .7 3.2 1.1z"/><path class="st8" d="M51.7 38.1c3.4 0 6.1-2.7 6.1-6.1s-2.7-6.1-6.1-6.1-6.1 2.7-6.1 6.1 2.7 6.1 6.1 6.1zm-24.5 0c3.4 0 6.1-2.7 6.1-6.1s-2.7-6.1-6.1-6.1c-3.4 0-6.1 2.7-6.1 6.1s2.8 6.1 6.1 6.1z"/><path d="M42.5 48.8c-1.3-.1-2.4-.8-3.1-2v-2.6c0-.8-.7-1.5-1.5-1.5s-1.5.7-1.5 1.5v2.7c-.4.7-.9 1.4-1.5 1.9-.8 0-1.5.7-1.5 1.5s.7 1.5 1.5 1.5c1.3-.1 2.4-.8 3.1-1.9 1.2 1.2 2.8 1.8 4.5 1.9.8 0 1.5-.7 1.5-1.5s-.7-1.5-1.5-1.5z" style="fill:#802d40"/><path class="st2" d="M79.1 32c-.2 0-.3 0-.5-.1-2.4-.7-4.7-1.8-6.7-3.4-.4-.4-.5-.9-.4-1.4.1-.5.5-.9 1-1.1 2.6-.9 5.4-1.4 8.1-1.6.8 0 1.5.7 1.5 1.5s-.7 1.5-1.5 1.5c-1.3 0-2.6.2-3.8.5.9.4 1.8.8 2.8 1.1.4.1.7.4.9.7s.2.8.1 1.2c-.2.7-.8 1.2-1.5 1.1z"/><path class="st6" d="M41 39.7c0 1.7-1.4 4.6-3.1 4.6-1.7 0-3.1-2.9-3.1-4.6 0-1.7 1.4-1.5 3.1-1.5 1.7-.1 3.1-.2 3.1 1.5z"/><path d="M28.8 35.1c1.7 0 3.1-1.4 3.1-3.1 0-1.7-1.4-3.1-3.1-3.1-1.7 0-3.1 1.4-3.1 3.1 0 1.7 1.4 3.1 3.1 3.1zm21.3 0c1.7 0 3.1-1.4 3.1-3.1 0-1.7-1.4-3.1-3.1-3.1-1.7 0-3.1 1.4-3.1 3.1.1 1.7 1.4 3.1 3.1 3.1z" style="fill:#3f5c6c"/><path class="st8" d="M27.2 32c.8 0 1.5-.7 1.5-1.5s-.6-1.5-1.5-1.5c-.8 0-1.5.7-1.5 1.5s.7 1.5 1.5 1.5zm24.5 0c.8 0 1.5-.7 1.5-1.5s-.7-1.5-1.5-1.5-1.5.7-1.5 1.5.6 1.5 1.5 1.5z"/></g></svg>