<?xml version="1.0" encoding="UTF-8"?>
<svg id="Capa_1" data-name="Capa 1" xmlns="http://www.w3.org/2000/svg" viewBox="0 0 842.84 341.3">
  <defs>
    <style>
      .cls-1, .cls-2 {
        fill: none;
      }

      .cls-3 {
        font-family: GillSans, 'Gill Sans';
        font-size: 120px;
      }

      .cls-4 {
        letter-spacing: -.02em;
      }

      .cls-5 {
        fill: #fff;
      }

      .cls-2 {
        stroke: #000;
        stroke-linecap: round;
        stroke-linejoin: round;
        stroke-width: 6.5px;
      }

      .cls-6 {
        fill-rule: evenodd;
      }
    </style>
  </defs>
  <g id="Capa-1">
    <g>
      <path class="cls-1" d="m264.71,300.08H0V35.37h264.71v264.71ZM47.99,70.25c-.61.19-1.01.29-1.4.44-19.09,7.49-28.73,31.23-20.11,49.8.42.9,1.84,1.76,2.89,1.88,16.92,1.96,31.02,9.53,43,21.39,1.99,1.97,2.11,4.24.51,5.94-1.68,1.78-3.98,1.71-6.11-.34-11.94-11.5-25.93-18.5-42.66-19.39-1.23-.07-2.74.36-3.71,1.09-19.37,14.69-22,44.35-5.67,62.32,1.46,1.61,3.02,2.31,5.13,2.37,13.43.33,25.14-3.95,35.12-12.95.57-.52,1.1-1.1,1.71-1.57,1.77-1.37,3.9-1.27,5.34.29,1.49,1.61,1.54,3.39.27,5.16-.4.55-.92,1.02-1.41,1.5-8.92,8.58-19.57,13.47-31.83,14.94-1.66.2-3.43-.14-4.16,2.38-5.22,18.22,4.05,37.79,21.51,45.23,1.51.64,2.42.45,3.61-.59,7.3-6.38,15.61-11,25.08-13.14,4.66-1.05,9.49-1.45,14.27-1.86,2.64-.22,4.16,1.41,4.24,3.79.08,2.41-1.29,3.87-3.94,4.17-.85.1-1.72.06-2.58.11-13.27.71-24.6,5.87-34.11,15.05-.72.7-1.27,2.1-1.15,3.08,1.43,11.43,6.62,20.82,16.24,27.23,12.33,8.21,25.52,9.05,38.61,2.16,13.54-7.13,20.56-18.85,20.6-34.16.13-59.86.06-119.72.03-179.59,0-2.31-.16-4.66-.54-6.94-2.48-14.85-13.64-26.29-28.71-29.58-15.85-3.45-31.16,2.3-39.71,14.93-5.16,7.62-5.1,10.3.66,17.51,5.66,7.09,12.99,11.06,22.13,11.52,3.75.19,5.35,1.5,5.28,4.22-.07,2.8-1.92,4.2-5.76,3.8-3.31-.35-6.67-.87-9.83-1.88-10.45-3.35-17.82-10.36-22.82-20.34Zm87.79,131.67c1.23,0,2.17,0,3.1,0,12.98,0,25.96.03,38.94-.04,1.7,0,2.83.5,3.95,1.79,6.26,7.2,12.66,14.28,18.93,21.48,1.42,1.63,2.99,2.34,5.15,2.31,5.75-.09,11.51-.03,17.35-.03.33.9.6,1.7.9,2.49,3.76,9.78,14.57,14.53,24.12,10.61,9.54-3.92,14.21-15.27,10.15-24.7-2.9-6.74-9.63-10.91-17.31-10.73-7.42.18-13.99,4.9-16.56,12.21-.64,1.81-1.48,2.3-3.28,2.25-3.95-.13-7.91-.17-11.86.01-2.13.1-3.45-.68-4.79-2.24-6.07-7.02-12.31-13.91-18.4-20.91-1.59-1.83-3.35-2.66-5.81-2.65-14.01.08-28.03.04-42.04.04-.83,0-1.66.07-2.55.12v7.98Zm0-65.37c.95,0,1.63,0,2.31,0,14.19,0,28.38-.04,42.57.04,2.38.01,4.01-.82,5.54-2.58,6.2-7.14,12.55-14.16,18.75-21.3,1.14-1.31,2.3-1.8,3.98-1.75,3.87.1,7.74.16,11.61-.02,2.27-.1,3.33.51,4.22,2.83,3.86,10.04,15.42,14.41,24.97,9.72,9.64-4.73,13.28-16.5,7.93-25.66-5.41-9.27-17.37-12.1-26.17-6.17-4.01,2.7-6.45,6.56-7.8,11.28-5.85,0-11.6.07-17.35-.04-2.17-.04-3.73.68-5.16,2.29-6.46,7.26-13.02,14.43-19.47,21.7-1.13,1.27-2.29,1.77-3.99,1.76-13.07-.07-26.14-.04-39.22-.04-.9,0-1.79,0-2.71,0v7.93Zm.03,34.92h87.85c.35.98.6,1.79.91,2.58,2.9,7.34,10.17,12.18,17.71,11.81,9.15-.45,16.95-7.65,17.76-16.4.86-9.27-5.08-17.73-14-19.93-8.8-2.17-18.09,2.66-21.42,11.45-.77,2.04-1.72,2.45-3.68,2.45-27.34-.06-54.67-.04-82.01-.04-1.01,0-2.01,0-3.14,0v8.07Zm52.99-87.64c7.54,3.61,9.87,4.08,14.74,3.08,10.19-2.09,16.77-12.87,13.92-22.81-2.95-10.33-13.89-16.07-23.8-12.49-10.09,3.64-15.09,15-10.74,24.6.56,1.23.49,1.91-.46,2.84-4.97,4.88-9.83,9.87-14.83,14.71-.75.73-2.09,1.17-3.16,1.18-8.6.09-17.19.05-25.79.05-.92,0-1.83,0-2.79,0v7.95c10.26,0,20.31-.06,30.37.04,2.43.03,4.23-.67,5.92-2.42,5.44-5.62,11.01-11.11,16.62-16.75Zm-5.17,168.35c-4.19,10.23-1.96,18.92,6.1,24.28,7.24,4.82,16.71,3.85,22.92-2.36,6.22-6.22,7.27-15.53,2.56-22.67-2.41-3.66-5.74-6.19-9.9-7.44-5.82-1.75-11.36-.88-15.52,2.02-6.02-5.62-11.81-10.88-17.41-16.33-1.8-1.75-3.56-2.62-6.1-2.59-9.2.12-18.4.05-27.59.04-.92,0-1.83,0-2.79,0v7.95c9.65,0,19.11-.03,28.56.04,1.01,0,2.29.32,2.97.98,5.44,5.26,10.76,10.63,16.22,16.07Z"/>
      <path d="m47.99,70.25c5,9.98,12.37,16.99,22.82,20.34,3.16,1.01,6.52,1.53,9.83,1.88,3.84.41,5.69-1,5.76-3.8.07-2.72-1.53-4.03-5.28-4.22-9.14-.46-16.47-4.43-22.13-11.52-5.76-7.21-5.81-9.9-.66-17.51,8.55-12.63,23.86-18.39,39.71-14.93,15.07,3.28,26.22,14.73,28.71,29.58.38,2.28.54,4.62.54,6.94.03,59.86.1,119.72-.03,179.59-.03,15.31-7.06,27.03-20.6,34.16-13.09,6.89-26.28,6.05-38.61-2.16-9.63-6.41-14.81-15.8-16.24-27.23-.12-.98.42-2.38,1.15-3.08,9.52-9.17,20.85-14.34,34.11-15.05.86-.05,1.72-.02,2.58-.11,2.66-.3,4.02-1.76,3.94-4.17-.08-2.38-1.6-4.02-4.24-3.79-4.78.4-9.61.81-14.27,1.86-9.48,2.13-17.78,6.75-25.08,13.14-1.19,1.04-2.1,1.24-3.61.59-17.45-7.45-26.72-27.01-21.51-45.23.72-2.53,2.5-2.18,4.16-2.38,12.26-1.48,22.91-6.36,31.83-14.94.49-.48,1.02-.95,1.41-1.5,1.27-1.77,1.22-3.54-.27-5.16-1.44-1.56-3.57-1.66-5.34-.29-.61.47-1.14,1.05-1.71,1.57-9.98,9-21.69,13.28-35.12,12.95-2.11-.05-3.67-.76-5.13-2.37-16.33-17.97-13.7-47.64,5.67-62.32.97-.74,2.49-1.16,3.71-1.09,16.73.89,30.72,7.88,42.66,19.39,2.13,2.05,4.43,2.13,6.11.34,1.6-1.7,1.48-3.97-.51-5.94-11.97-11.86-26.07-19.43-43-21.39-1.04-.12-2.47-.98-2.89-1.88-8.62-18.57,1.01-42.31,20.11-49.8.39-.15.79-.25,1.4-.44Z"/>
      <path d="m135.78,201.92v-7.98c.89-.04,1.72-.12,2.55-.12,14.01,0,28.03.04,42.04-.04,2.46-.01,4.21.82,5.81,2.65,6.09,7.01,12.32,13.89,18.4,20.91,1.34,1.55,2.66,2.34,4.79,2.24,3.95-.19,7.91-.14,11.86-.01,1.79.06,2.64-.44,3.28-2.25,2.57-7.31,9.14-12.03,16.56-12.21,7.68-.18,14.41,3.99,17.31,10.73,4.06,9.43-.61,20.79-10.15,24.7-9.55,3.92-20.36-.83-24.12-10.61-.3-.79-.58-1.59-.9-2.49-5.84,0-11.6-.06-17.35.03-2.16.03-3.73-.67-5.15-2.31-6.27-7.19-12.66-14.28-18.93-21.48-1.12-1.29-2.25-1.8-3.95-1.79-12.98.06-25.96.04-38.94.04-.93,0-1.87,0-3.1,0Zm105.9,11.18c-5.58.06-10.35,4.88-10.33,10.42.02,5.52,4.86,10.38,10.38,10.41,5.57.03,10.59-5.04,10.48-10.59-.12-5.56-4.99-10.3-10.52-10.24Z"/>
      <path d="m135.78,136.56v-7.93c.91,0,1.81,0,2.71,0,13.07,0,26.14-.03,39.22.04,1.7,0,2.86-.49,3.99-1.76,6.45-7.27,13.02-14.43,19.47-21.7,1.43-1.61,2.99-2.33,5.16-2.29,5.75.11,11.51.04,17.35.04,1.36-4.72,3.79-8.58,7.8-11.28,8.81-5.93,20.77-3.11,26.17,6.17,5.35,9.17,1.71,20.93-7.93,25.66-9.56,4.69-21.12.31-24.97-9.72-.89-2.31-1.95-2.93-4.22-2.83-3.86.17-7.74.12-11.61.02-1.68-.04-2.85.45-3.98,1.75-6.2,7.14-12.55,14.16-18.75,21.3-1.53,1.76-3.15,2.59-5.54,2.58-14.19-.09-28.38-.04-42.57-.04-.68,0-1.36,0-2.31,0Zm106.05-19.19c5.54-.03,10.38-4.89,10.37-10.41-.01-5.56-4.8-10.31-10.41-10.33-5.88-.03-10.55,4.65-10.44,10.46.1,5.6,4.9,10.31,10.48,10.29Z"/>
      <path d="m135.81,171.47v-8.07c1.13,0,2.13,0,3.14,0,27.34,0,54.67-.02,82.01.04,1.95,0,2.91-.41,3.68-2.45,3.33-8.79,12.62-13.63,21.42-11.45,8.92,2.2,14.86,10.66,14,19.93-.81,8.75-8.61,15.95-17.76,16.4-7.54.37-14.81-4.47-17.71-11.81-.31-.79-.57-1.6-.91-2.58h-87.85Zm105.98,6.32c5.55,0,10.39-4.78,10.42-10.31.03-5.53-4.76-10.37-10.32-10.41-5.71-.04-10.59,4.8-10.53,10.44.06,5.57,4.84,10.28,10.43,10.28Z"/>
      <path d="m188.8,83.83c-5.61,5.63-11.18,11.13-16.62,16.75-1.69,1.75-3.49,2.44-5.92,2.42-10.05-.11-20.11-.04-30.37-.04v-7.95c.96,0,1.87,0,2.79,0,8.6,0,17.2.04,25.79-.05,1.07-.01,2.41-.46,3.16-1.18,5.01-4.84,9.86-9.83,14.83-14.71.95-.94,1.02-1.62.46-2.84-4.35-9.59.65-20.95,10.74-24.6,9.9-3.58,20.84,2.16,23.8,12.49,2.84,9.94-3.74,20.72-13.92,22.81-4.87,1-7.2.52-14.74-3.08Zm21.29-14.89c.01-5.62-4.67-10.37-10.27-10.42-5.56-.05-10.4,4.7-10.46,10.25-.07,5.74,4.68,10.52,10.42,10.5,5.64-.02,10.3-4.69,10.31-10.33Z"/>
      <path d="m183.63,252.18c-5.46-5.44-10.78-10.82-16.22-16.07-.68-.66-1.96-.97-2.97-.98-9.45-.07-18.9-.04-28.56-.04v-7.95c.96,0,1.88,0,2.79,0,9.2,0,18.4.08,27.59-.04,2.54-.03,4.31.84,6.1,2.59,5.6,5.45,11.39,10.71,17.41,16.33,4.17-2.9,9.7-3.77,15.52-2.02,4.16,1.25,7.48,3.78,9.9,7.44,4.71,7.14,3.66,16.46-2.56,22.67-6.21,6.21-15.68,7.19-22.92,2.36-8.06-5.37-10.29-14.05-6.1-24.28Zm26.45,9.47c.05-5.62-4.57-10.42-10.16-10.55-5.6-.13-10.57,4.77-10.58,10.42,0,5.6,4.7,10.33,10.31,10.37,5.63.04,10.37-4.62,10.42-10.24Z"/>
      <path class="cls-5" d="m241.68,213.1c5.54-.06,10.41,4.68,10.52,10.24.11,5.54-4.91,10.62-10.48,10.59-5.52-.03-10.36-4.89-10.38-10.41-.02-5.54,4.76-10.35,10.33-10.42Z"/>
      <path class="cls-5" d="m241.83,117.37c-5.58.03-10.38-4.69-10.48-10.29-.11-5.8,4.57-10.48,10.44-10.46,5.61.03,10.39,4.78,10.41,10.33.01,5.52-4.83,10.38-10.37,10.41Z"/>
      <path class="cls-1" d="m241.79,177.79c-5.6,0-10.37-4.71-10.43-10.28-.06-5.64,4.82-10.48,10.53-10.44,5.55.04,10.35,4.88,10.32,10.41-.03,5.53-4.86,10.31-10.42,10.31Z"/>
      <path class="cls-1" d="m210.08,68.94c-.01,5.65-4.67,10.31-10.31,10.33-5.74.02-10.49-4.76-10.42-10.5.06-5.55,4.91-10.3,10.46-10.25,5.6.05,10.28,4.8,10.27,10.42Z"/>
      <path class="cls-5" d="m210.08,261.66c-.05,5.62-4.8,10.28-10.42,10.24-5.61-.04-10.31-4.77-10.31-10.37,0-5.65,4.97-10.55,10.58-10.42,5.59.13,10.21,4.93,10.16,10.55Z"/>
    </g>
  </g>
  <g id="Capa-2">
    <g>
      <path class="cls-6" d="m215.05,3.27l.36,65.96"/>
      <path d="m215.04,0c-1.8,0-3.26,1.49-3.25,3.3.11,21.99.08,43.97.17,65.96.01,1.91,1.56,3.45,3.47,3.44,1.91-.01,3.45-1.56,3.44-3.47-.15-21.99-.41-43.99-.55-65.98-.01-1.8-1.48-3.26-3.28-3.25Z"/>
    </g>
    <g>
      <path class="cls-6" d="m256.11,40.16l.36,65.96"/>
      <path d="m256.1,36.89c-1.8.01-3.26,1.48-3.25,3.28.11,21.99.08,43.99.17,65.98.01,1.91,1.58,3.43,3.48,3.42s3.43-1.56,3.42-3.47c-.15-21.99-.41-43.97-.55-65.96-.01-1.8-1.48-3.26-3.28-3.25Z"/>
    </g>
    <g>
      <path class="cls-6" d="m184.81,262.19l.36,65.96"/>
      <path d="m184.79,258.92c-1.8.01-3.26,1.49-3.25,3.3.11,21.99.09,43.97.19,65.96.01,1.91,1.56,3.45,3.47,3.44,1.91-.01,3.43-1.58,3.42-3.48-.15-21.99-.41-43.97-.55-65.96,0-1.8-1.48-3.26-3.28-3.25Z"/>
    </g>
    <g>
      <path class="cls-6" d="m227.19,225.58l.36,65.96"/>
      <path d="m227.16,222.31c-1.8,0-3.26,1.48-3.25,3.28.11,21.99.09,43.97.19,65.96.01,1.91,1.56,3.45,3.47,3.44,1.91-.01,3.45-1.56,3.44-3.47-.15-21.99-.41-43.97-.55-65.96-.01-1.8-1.49-3.26-3.3-3.25Z"/>
    </g>
    <g>
      <path class="cls-6" d="m227.82,291.78l-42.3,45.6"/>
      <path d="m227.69,288.51c-.84.03-1.65.38-2.27,1.05-14.11,15.19-28.31,30.3-42.43,45.48-.65.7-.95,1.59-.92,2.47.03.88.39,1.76,1.09,2.41.7.65,1.6.95,2.48.92.88-.03,1.76-.41,2.41-1.11,14.08-15.22,28.06-30.52,42.15-45.73.61-.66.91-1.51.87-2.34-.03-.84-.39-1.65-1.05-2.27-.66-.61-1.51-.91-2.34-.87Z"/>
    </g>
    <g>
      <path class="cls-6" d="m231.96,107.23c0-5.67,4.69-10.26,10.48-10.26s10.48,4.59,10.48,10.26-4.69,10.26-10.48,10.26-10.48-4.59-10.48-10.26Z"/>
      <path d="m241.28,93.74c-1.7.14-3.39.59-4.98,1.37-3.3,1.62-5.87,4.57-6.98,8.08-.14.45-.29,1.66-.39,2.48-.25.49-.43,1.02-.42,1.61.13,1.81.04,1.18.12,1.81.17,1.2.5,2.38.98,3.5,1.85,4.29,5.89,7.38,10.48,8.14.9.15,1.81.21,2.7.19,6.24-.19,11.9-4.58,13.2-10.94.17-.83.27-1.68.28-2.53.01-.85-.07-1.7-.22-2.53-.29-1.62-.87-3.18-1.72-4.59-2.79-4.62-7.96-7.01-13.06-6.59Zm.86,6.53c3.01-.1,5.98,1.65,7.05,4.72,1.08,3.1-.34,6.54-3.17,8.15-1.78,1.01-3.98,1.19-5.92.53-1.98-.68-3.61-2.25-4.31-4.23-.15-.42,0,0-.37-2.27,0-.16-.07-.3-.09-.45.08-.69.09-1.1.23-1.55.58-1.82,1.91-3.34,3.62-4.17.95-.46,1.96-.7,2.97-.73Z"/>
    </g>
    <g>
      <path class="cls-6" d="m232.66,223.46c0-5.67,4.69-10.26,10.48-10.26s10.48,4.59,10.48,10.26-4.69,10.26-10.48,10.26-10.48-4.59-10.48-10.26Z"/>
      <path d="m242,209.96c-1.7.14-3.4.59-5,1.37-3.3,1.62-5.87,4.59-6.98,8.09-.14.45-.29,1.66-.39,2.48-.25.49-.43,1.02-.42,1.61.13,1.81.05,1.18.14,1.81.17,1.2.49,2.38.97,3.5,1.85,4.29,5.91,7.38,10.5,8.14,7.23,1.2,14.4-3.48,15.89-10.75.17-.83.27-1.68.28-2.53.01-.85-.05-1.7-.2-2.53-.29-1.62-.88-3.18-1.73-4.59-2.79-4.62-7.94-7.02-13.05-6.61Zm.86,6.55c3.01-.1,5.96,1.64,7.03,4.7,1.08,3.1-.32,6.54-3.16,8.15-1.78,1.01-4,1.21-5.94.55-1.98-.68-3.61-2.25-4.31-4.23-.15-.42,0,0-.37-2.27,0-.16-.07-.3-.09-.45.08-.7.09-1.12.23-1.56.58-1.82,1.93-3.34,3.64-4.17.95-.46,1.96-.69,2.97-.72Z"/>
    </g>
    <g>
      <path class="cls-6" d="m189.62,262.38c0-5.67,4.69-10.26,10.48-10.26s10.48,4.59,10.48,10.26-4.69,10.26-10.48,10.26-10.48-4.59-10.48-10.26Z"/>
      <path d="m198.96,248.89c-1.7.14-3.4.59-5,1.37-3.3,1.62-5.87,4.57-6.98,8.08-.14.45-.29,1.66-.39,2.48-.25.49-.43,1.02-.42,1.61.13,1.81.05,1.18.14,1.81.17,1.2.49,2.38.97,3.5,1.85,4.29,5.89,7.38,10.48,8.14.9.15,1.81.21,2.7.19,6.24-.19,11.9-4.58,13.2-10.94.17-.83.27-1.68.28-2.53.01-.85-.05-1.7-.2-2.53-.29-1.62-.88-3.18-1.73-4.59-2.79-4.62-7.94-7.01-13.04-6.59Zm.84,6.53c3.01-.1,5.98,1.65,7.05,4.72,1.08,3.1-.32,6.54-3.16,8.15-1.78,1.01-4,1.19-5.94.53-1.98-.68-3.61-2.24-4.31-4.22-.15-.42,0,0-.37-2.28,0-.16-.07-.3-.09-.45.08-.69.09-1.1.23-1.55.58-1.82,1.93-3.34,3.64-4.17.95-.46,1.95-.7,2.95-.73Z"/>
    </g>
    <g>
      <path class="cls-6" d="m184.9,275.95l.31,61.9"/>
      <path d="m184.88,272.68c-1.8,0-3.26,1.48-3.25,3.28.09,20.63.05,41.27.12,61.9,0,1.91,1.56,3.45,3.47,3.44,1.91,0,3.45-1.56,3.44-3.47-.13-20.63-.38-41.27-.5-61.9,0-1.8-1.48-3.26-3.28-3.25Z"/>
    </g>
    <path class="cls-6" d="m253.39,94.59c-17.49-6.26-26.17,5.58-21.96,17.4,2.7,7.59,18.05,12.04,28.14-4.63-.27-15.74-.01-31.66-.28-47.39,20.55,12.92,16,24.18,13.72,36.55,7.38-4.89,17.7-21.98,1.64-39.86-7.52-7.84-6.08-1.52-14.58-18.48-.18-.17-1.77-1.66-3.97-1.29-1.48.25-2.38,1.19-2.65,1.51-.12,19.28.07,36.91-.05,56.19Z"/>
    <path class="cls-2" d="m183.71,69.16c0-8.57,7.13-15.52,15.93-15.52s15.93,6.95,15.93,15.52-7.13,15.52-15.93,15.52-15.93-6.95-15.93-15.52Z"/>
    <path class="cls-2" d="m241.68,152.16c-8.8,0-15.94,6.94-15.94,15.51s7.14,15.53,15.94,15.53,15.92-6.96,15.92-15.53-7.12-15.51-15.92-15.51Z"/>
  </g>
  <text class="cls-3" transform="translate(320.25 201.1)"><tspan x="0" y="0">MultiScore</tspan></text>
</svg>
